<?xml version="1.0" encoding="UTF-8" standalone="no"?>
<!-- Generator: Adobe Illustrator 16.0.0, SVG Export Plug-In . SVG Version: 6.00 Build 0)  -->

<svg
   xmlns:dc="http://purl.org/dc/elements/1.1/"
   xmlns:cc="http://creativecommons.org/ns#"
   xmlns:rdf="http://www.w3.org/1999/02/22-rdf-syntax-ns#"
   xmlns:svg="http://www.w3.org/2000/svg"
   xmlns="http://www.w3.org/2000/svg"
   xmlns:sodipodi="http://sodipodi.sourceforge.net/DTD/sodipodi-0.dtd"
   xmlns:inkscape="http://www.inkscape.org/namespaces/inkscape"
   version="1.1"
   id="Capa_1"
   x="0px"
   y="0px"
   width="584.432px"
   height="584.432px"
   viewBox="0 0 584.432 584.432"
   style="enable-background:new 0 0 584.432 584.432;"
   xml:space="preserve"
   inkscape:version="0.91 r13725"
   sodipodi:docname="zoom.svg"><metadata
     id="metadata45"><rdf:RDF><cc:Work
         rdf:about=""><dc:format>image/svg+xml</dc:format><dc:type
           rdf:resource="http://purl.org/dc/dcmitype/StillImage" /></cc:Work></rdf:RDF></metadata><defs
     id="defs43" /><sodipodi:namedview
     pagecolor="#ffffff"
     bordercolor="#666666"
     borderopacity="1"
     objecttolerance="10"
     gridtolerance="10"
     guidetolerance="10"
     inkscape:pageopacity="0"
     inkscape:pageshadow="2"
     inkscape:window-width="689"
     inkscape:window-height="480"
     id="namedview41"
     showgrid="false"
     inkscape:zoom="0.40381087"
     inkscape:cx="371.55688"
     inkscape:cy="94.103452"
     inkscape:window-x="0"
     inkscape:window-y="0"
     inkscape:window-maximized="0"
     inkscape:current-layer="Capa_1" /><g
     id="g3"
     style="fill:#ffffff"><g
       id="g5"
       style="fill:#ffffff"><path
         d="M565.654,474.906l-61.121-61.121c-3.803-3.803-8.754-5.898-13.938-5.898c-6.283,0-12.098,3.031-15.949,8.316    c-16.34,22.426-35.998,42.08-58.426,58.424c-4.807,3.504-7.818,8.777-8.262,14.469c-0.439,5.645,1.689,11.266,5.842,15.418    l61.121,61.121c12.121,12.121,28.238,18.797,45.377,18.797c17.145,0,33.252-6.676,45.357-18.803    C590.67,540.623,590.67,499.922,565.654,474.906z"
         id="path7"
         style="fill:#ffffff" /><path
         d="M254.559,509.086c140.355,0,254.543-114.188,254.543-254.543C509.102,114.187,394.914,0,254.559,0    C114.203,0,0.016,114.187,0.016,254.543C0.016,394.898,114.203,509.086,254.559,509.086z M254.559,76.402    c98.227,0,178.141,79.912,178.141,178.141c0,98.229-79.912,178.141-178.141,178.141c-98.229,0-178.141-79.912-178.141-178.141    C76.418,156.314,156.333,76.402,254.559,76.402z"
         id="path9"
         style="fill:#ffffff" /></g></g><g
     id="g11" /><g
     id="g13" /><g
     id="g15" /><g
     id="g17" /><g
     id="g19" /><g
     id="g21" /><g
     id="g23" /><g
     id="g25" /><g
     id="g27" /><g
     id="g29" /><g
     id="g31" /><g
     id="g33" /><g
     id="g35" /><g
     id="g37" /><g
     id="g39" /></svg>